# xmcd
#
# Track frame offsets:
#	150
#	13224
#	25702
#	36129
#	48184
#	60142
#	74082
#	84664
#	96211
#	108542
#
# Disc length: 1636 seconds
#
# Revision: 0
# Processed by: cddbd v1.5.1PL2 Copyright (c) Steve Scherf et al.
# Submitted via: EasyCDDAExtractor 9.1.3.1
#
DISCID=7c06620a
DTITLE=Various Artist - Back to Back Hits
DYEAR=2004
DGENRE=Blues
TTITLE0=Lightnin' Hopkins - Jake's Head Boogie
TTITLE1=Lightnin' Hopkins - Lonesome Dog Blues
TTITLE2=Lightnin' Hopkins - Don't Keep My Baby Long
TTITLE3=Lightnin' Hopkins - Mistreated Blues
TTITLE4=Lightnin' Hopkins - Black Cat
TTITLE5=Elmore James - Please Find My Baby
TTITLE6=Elmore James - Hawaiian Boogie
TTITLE7=Elmore James - Strange Kinda Feeling
TTITLE8=Elmore James - Blues Before Sunrise
TTITLE9=Elmore James - Dust My Blues
EXTD=
EXTT0=
EXTT1=
EXTT2=
EXTT3=
EXTT4=
EXTT5=
EXTT6=
EXTT7=
EXTT8=
EXTT9=
PLAYORDER=
